:SAMPLES-PER-SECOND 30
:FULLY-SPECIFIED
:DEGREES
473
root  -2.76905 40.4643 -2.30306 -2.79478 -70.3388 2.77861
RightUpLeg  2.87537 -2.56962 2.54888
RightLeg  3.45251 -38.9348 -0.155265
RightFoot  -6.46768 -0.0813783 0.846991
RightToes  -3.13006e-008 1.75238e-005 3.56266e-009
Spine  -6.3389 -1.25261 0.928533
Spine1  14.35 0.213486 -3.74479
HEad  -11.3293 -9.52029 -12.8423
LeftShoulder1  3.43187 -6.36229 -28.7448
LeftArm  -33.0556 10.355 -35.1019
LeftForeArm  128.788 -66.9575 -152.275
LeftHand  -0.682143 -2.02144 10.8732
RightShoulder  3.32813 6.23954 28.2017
RightArm  -29.2074 -16.8561 40.4169
RightForeArm  111.867 77.1034 124.59
RightHand  -0.779968 5.93004 -8.30375
LeftUpLeg  -5.51339 0.472631 5.53665
LeftLeg  7.56554 -7.10549 -0.380312
LeftFoot  -2.39725 0.60745 -7.57357
LeftToes  4.76866e-008 1.46233e-008 1.30548e-009
474
root  -2.82559 40.4839 -2.37149 -3.59627 -69.9448 3.54166
RightUpLeg  3.08626 -2.66199 2.38956
RightLeg  3.28269 -39.1718 -0.0734419
RightFoot  -6.5005 -0.0718735 0.661629
RightToes  -3.13006e-008 1.75238e-005 3.56266e-009
Spine  -6.14536 0.84541 3.34824
Spine1  14.5526 3.08968 -6.5333
HEad  -10.8011 -13.5495 -11.6481
LeftShoulder1  3.19043 -5.80426 -28.2189
LeftArm  -34.9895 13.7786 -33.4522
LeftForeArm  130.248 -65.8172 -153.825
LeftHand  -0.675065 -2.22915 10.4819
RightShoulder  3.51207 6.73797 28.3358
RightArm  -26.6051 -10.7361 39.5655
RightForeArm  113.928 77.1523 124.888
RightHand  -0.792948 5.78455 -8.53589
LeftUpLeg  -4.98354 0.173073 5.22783
LeftLeg  6.60349 -7.07459 -0.0543416
LeftFoot  -2.10255 0.668314 -8.10912
LeftToes  4.76866e-008 1.46233e-008 1.30548e-009
475
root  -2.88472 40.5102 -2.42566 -4.52693 -70.1717 4.43877
RightUpLeg  3.30106 -2.74834 2.15393
RightLeg  3.10752 -38.7408 0.0441061
RightFoot  -6.51908 -0.0644339 0.485418
RightToes  -3.13006e-008 1.75238e-005 3.56266e-009
Spine  -5.14335 3.00535 5.94516
Spine1  13.7675 6.06997 -9.6064
HEad  -10.8617 -16.6327 -9.65252
LeftShoulder1  2.94927 -5.24688 -27.6354
LeftArm  -36.0724 18.1032 -32.0968
LeftForeArm  133.778 -64.4481 -155.668
LeftHand  -0.678605 -2.36001 10.3689
RightShoulder  3.63255 7.10125 28.2968
RightArm  -22.7394 -4.4234 38.9448
RightForeArm  117.396 76.8875 127.031
RightHand  -0.842406 5.92459 -8.94301
LeftUpLeg  -4.27044 0.105505 4.93987
LeftLeg  5.57449 -6.68763 0.254033
LeftFoot  -1.67233 0.694308 -8.08187
LeftToes  4.76866e-008 1.46233e-008 1.30548e-009
476
root  -2.93899 40.5321 -2.47372 -5.18202 -70.5058 5.0318
RightUpLeg  3.54698 -2.73168 2.06845
RightLeg  2.83004 -38.3374 0.165891
RightFoot  -6.41827 -0.0533727 0.245043
RightToes  -3.13006e-008 1.75238e-005 3.56266e-009
Spine  -3.95795 4.91118 7.94064
Spine1  12.9969 8.5667 -11.8232
HEad  -11.2175 -19.3038 -8.11694
LeftShoulder1  2.74341 -4.6862 -27.4078
LeftArm  -37.5499 22.9114 -31.1452
LeftForeArm  135.033 -62.4093 -157.734
LeftHand  -0.665025 -2.67184 9.78764
RightShoulder  3.70905 7.48001 27.7897
RightArm  -17.9041 2.17475 38.5127
RightForeArm  120.084 76.836 127.927
RightHand  -0.856647 6.13014 -8.94112
LeftUpLeg  -3.60764 0.356271 4.8926
LeftLeg  4.69434 -6.52742 0.317894
LeftFoot  -1.37 0.726473 -8.22515
LeftToes  4.76866e-008 1.46233e-008 1.30548e-009
477
root  -2.99293 40.553 -2.5064 -5.77402 -70.987 5.72252
RightUpLeg  3.63239 -2.80926 1.86667
RightLeg  2.53421 -37.7106 0.424392
RightFoot  -6.37582 -0.0468841 0.0882715
RightToes  -3.13006e-008 1.75238e-005 3.56266e-009
Spine  -1.51572 6.61706 10.2748
Spine1  10.3211 10.8973 -14.9107
HEad  -11.0082 -21.4586 -6.28439
LeftShoulder1  2.54311 -4.24579 -26.7141
LeftArm  -38.6716 28.8101 -31.1893
LeftForeArm  137.428 -60.3763 -159.634
LeftHand  -0.696992 -3.22143 9.63961
RightShoulder  3.75928 7.78669 27.3028
RightArm  -12.4597 7.63906 38.1747
RightForeArm  123.2 76.6482 129.487
RightHand  -0.842462 6.80785 -8.33306
LeftUpLeg  -3.10675 0.438431 4.79357
LeftLeg  3.87068 -6.01015 0.44132
LeftFoot  -1.08939 0.76252 -8.41717
LeftToes  4.76866e-008 1.46233e-008 1.30548e-009
478
root  -3.06868 40.5724 -2.53633 -5.842 -71.4797 6.0851
RightUpLeg  3.6061 -2.59553 1.93299
RightLeg  2.00049 -37.3732 0.644078
RightFoot  -6.1987 -0.0377847 -0.0791193
RightToes  -3.13006e-008 1.75238e-005 3.56266e-009
Spine  -0.911921 8.41449 11.5004
Spine1  10.1082 13.0433 -16.0993
HEad  -11.5106 -23.5318 -4.81515
LeftShoulder1  2.43613 -3.92686 -26.6672
LeftArm  -39.9015 33.6347 -31.8442
LeftForeArm  138.438 -58.731 -160.916
LeftHand  -0.625443 -3.70852 8.23364
RightShoulder  3.68485 8.0111 25.9511
RightArm  -6.8648 12.9154 38.4182
RightForeArm  125.23 76.4247 130.856
RightHand  -0.741344 6.99273 -7.28449
LeftUpLeg  -2.91095 0.516663 4.81974
LeftLeg  3.23828 -5.47574 0.537175
LeftFoot  -0.866931 0.800241 -8.66501
LeftToes  4.76866e-008 1.46233e-008 1.30548e-009
479
root  -3.15579 40.5795 -2.55391 -5.61786 -71.2303 6.17838
RightUpLeg  3.57877 -2.53123 1.95783
RightLeg  1.57891 -37.5465 0.88365
RightFoot  -6.11234 -0.0394059 -0.0482068
RightToes  -3.13006e-008 1.75238e-005 3.56266e-009
Spine  -0.20224 9.59819 12.2887
Spine1  9.33044 14.4944 -17.3402
HEad  -12.1971 -24.3713 -2.76795
LeftShoulder1  2.19433 -3.31569 -26.0417
LeftArm  -40.2951 38.006 -33.8854
LeftForeArm  138.944 -57.0023 -162.102
LeftHand  -0.634029 -3.94095 8.15346
RightShoulder  3.76152 8.28688 25.8454
RightArm  -1.21252 17.1797 37.921
RightForeArm  128.809 75.9797 133.313
RightHand  -0.735252 7.72466 -6.85512
LeftUpLeg  -3.09122 0.448936 4.75888
LeftLeg  3.04519 -5.47684 0.579542
LeftFoot  -0.665589 0.788169 -8.38313
LeftToes  4.76866e-008 1.46233e-008 1.30548e-009
480
root  -3.23576 40.5809 -2.57109 -5.24942 -70.4993 6.14867
RightUpLeg  3.46404 -2.50567 1.97877
RightLeg  1.33841 -38.1447 1.02142
RightFoot  -6.03932 -0.0478491 0.147917
RightToes  -3.13006e-008 1.75238e-005 3.56266e-009
Spine  0.949713 10.3169 12.9355
Spine1  7.70957 15.3818 -18.7515
HEad  -12.6741 -25.5294 -0.920857
LeftShoulder1  2.10262 -3.12751 -25.5512
LeftArm  -40.8744 41.7148 -36.0714
LeftForeArm  140.086 -55.652 -163.013
LeftHand  -0.603623 -4.37623 7.46065
RightShoulder  3.91461 8.6465 26.1756
RightArm  2.99439 19.5314 37.7712
RightForeArm  134.695 75.6558 135.681
RightHand  -0.652713 8.25682 -5.91096
LeftUpLeg  -3.53139 0.263915 4.67277
LeftLeg  3.09494 -5.83036 0.613473
LeftFoot  -0.556539 0.802569 -8.45779
LeftToes  4.76866e-008 1.46233e-008 1.30548e-009
481
root  -3.32382 40.5714 -2.58514 -4.82811 -69.0055 5.87706
RightUpLeg  3.56247 -2.51758 2.07224
RightLeg  1.19545 -39.4201 1.05668
RightFoot  -6.02344 -0.0623609 0.462332
RightToes  -3.13006e-008 1.75238e-005 3.56266e-009
Spine  0.526111 10.7887 12.383
Spine1  8.26756 15.7699 -18.0039
HEad  -13.3249 -26.5094 0.798733
LeftShoulder1  2.09731 -3.05039 -25.8439
LeftArm  -42.1687 42.8927 -38.7641
LeftForeArm  140.747 -55.1706 -163.337
LeftHand  -0.552991 -4.84666 6.56321
RightShoulder  3.94118 8.77528 26.0464
RightArm  5.39342 21.1158 38.5457
RightForeArm  137.987 75.7305 136.131
RightHand  -0.49483 8.64816 -4.46462
LeftUpLeg  -3.95294 -0.0555922 4.53433
LeftLeg  3.23404 -6.77461 0.674666
LeftFoot  -0.446009 0.807957 -8.43469
LeftToes  4.76866e-008 1.46233e-008 1.30548e-009
482
root  -3.39613 40.5566 -2.59522 -4.16339 -66.836 5.29912
RightUpLeg  3.7328 -2.57495 2.24356
RightLeg  0.97761 -41.4274 1.22893
RightFoot  -6.09589 -0.0751482 0.737244
RightToes  -3.13006e-008 1.75238e-005 3.56266e-009
Spine  -0.488365 10.7499 11.4344
Spine1  9.6118 15.5561 -16.5933
HEad  -14.1982 -26.9489 2.23455
LeftShoulder1  2.22693 -3.27216 -26.759
LeftArm  -43.1601 42.6274 -41.2174
LeftForeArm  140.876 -54.8707 -163.516
LeftHand  -0.552066 -4.77482 6.59736
RightShoulder  3.90814 8.67636 26.0301
RightArm  6.56094 21.7338 39.5596
RightForeArm  137.886 75.8185 135.827
RightHand  -0.467875 8.97405 -4.15941
LeftUpLeg  -4.58904 -0.409879 4.41893
LeftLeg  3.605 -8.39529 0.702355
LeftFoot  -0.402441 0.819804 -8.52704
LeftToes  4.76866e-008 1.46233e-008 1.30548e-009
483
root  -3.45338 40.5355 -2.6139 -3.87927 -64.4037 4.88165
RightUpLeg  4.08711 -2.6839 2.41709
RightLeg  0.825848 -43.7755 1.33799
RightFoot  -6.22788 -0.0861767 0.982553
RightToes  -3.13006e-008 1.75238e-005 3.56266e-009
Spine  -0.865285 10.1362 10.2969
Spine1  10.084 14.7137 -15.4448
HEad  -14.7255 -27.1558 3.67627
LeftShoulder1  2.28473 -3.40047 -26.9628
LeftArm  -43.6538 41.9128 -43.5859
LeftForeArm  139.723 -54.6575 -163.552
LeftHand  -0.516606 -4.77632 6.19357
RightShoulder  4.12875 8.99246 27.0297
RightArm  6.58673 21.152 40.0587
RightForeArm  136.156 76.0598 134.655
RightHand  -0.430184 8.94738 -3.86545
LeftUpLeg  -4.97798 -0.659112 4.30032
LeftLeg  3.84184 -10.4922 0.605477
LeftFoot  -0.350898 0.821612 -8.50885
LeftToes  4.76866e-008 1.46233e-008 1.30548e-009
484
root  -3.49145 40.5111 -2.62677 -3.74452 -62.1717 4.61084
RightUpLeg  4.40791 -2.76654 2.58172
RightLeg  0.645189 -45.9806 1.43336
RightFoot  -6.30944 -0.0919215 1.11378
RightToes  -3.13006e-008 1.75238e-005 3.56266e-009
Spine  -1.70837 9.53184 8.48343
Spine1  11.2143 13.6499 -13.0657
HEad  -15.3661 -27.3145 4.47074
LeftShoulder1  2.6051 -4.11108 -28.1569
LeftArm  -44.1265 40.1046 -45.3174
LeftForeArm  139.642 -55.1598 -163.261
LeftHand  -0.514579 -4.87143 6.11726
RightShoulder  4.10721 8.8705 27.184
RightArm  6.11655 20.3409 40.8753
RightForeArm  134.797 76.3791 133.236
RightHand  -0.524121 8.65777 -4.70245
LeftUpLeg  -5.22195 -1.11031 4.08912
LeftLeg  3.87587 -12.3507 0.697493
LeftFoot  -0.343609 0.82409 -8.52901
LeftToes  4.76866e-008 1.46233e-008 1.30548e-009
